<?xml version="1.0" encoding="UTF-8"?> <svg xmlns="http://www.w3.org/2000/svg" width="452" height="498" viewBox="0 0 452 498"><path fill="#8CC84B" d="M246.096,5.486 C308.061,40.499 370.045,75.458 431.999,110.492 C443.651,117.056 451.446,130.024 451.328344,143.451 L451.328344,354.104 C451.414,368.086 442.849,381.365 430.556,387.78 C368.795,422.6 307.066,457.464 245.316,492.284 C232.733,499.478 216.355,498.924 204.166,491.139 C185.65,480.406 167.102,469.725 148.584,459.001 C147.908286,458.598321 147.217233,458.210279 146.522653,457.823595 L145.688219,457.359375 C142.767062,455.730937 139.867,454.03275 137.863,451.281 C140.225,448.097 144.448,447.701 147.88,446.31 C155.609,443.853 162.708,439.908 169.808,436.08 C171.603,434.851 173.796,435.322 175.516,436.422 C191.349,445.5 207.043,454.842 222.93,463.834 C226.319,465.79 229.75,463.192 232.648,461.577 C293.254,427.324 353.935,393.2 414.531,358.935 C416.776,357.855 418.017,355.471 417.836,353.012 C417.878,283.522 417.846,214.019 417.857,144.53 C418.114,141.739 416.5,139.174 413.976,138.031 C352.429,103.37 290.914,68.656 229.378,33.987 C227.195,32.487 224.315,32.483 222.128,33.976 C160.592,68.657 99.088,103.402 37.552,138.061 C35.037,139.205 33.35,141.728 33.649,144.529 C33.66,214.019 33.649,283.521 33.649,353.022 C33.431,355.48 34.766,357.813 36.996,358.871 C53.417,368.183 69.86,377.429 86.291,386.709 C95.548,391.691 106.914,394.652 117.113,390.835 C126.113,387.606 132.422,378.423 132.25,368.866 C132.335,299.781 132.208,230.686 132.314,161.613 C132.089,158.546 134.998,156.012 137.98,156.301 C145.87,156.248 153.771,156.195 161.661,156.322 C164.954,156.248 167.221,159.55 166.813,162.64 C166.781,232.162 166.898,301.686 166.76,371.207 C166.781,389.735 159.169,409.896 142.031,418.962 C120.918,429.9 94.822,427.58 73.963,417.092 C55.906,408.079 38.674,397.444 20.937,387.787 C8.74795556,381.478878 0.278847407,368.371408 0.174813942,354.569488 L0.174481974,143.449 C0.047,129.744 8.151,116.54 20.167,110.072 C81.916,75.226 143.656,40.35 205.396,5.486 C217.724,-1.57 233.78,-1.602 246.096,5.486 Z M339.266,163.648 C358.03,173.815 368.432,195.153 368.763,216 C368.24,218.812 365.3,220.363 362.616,220.17 C354.802,220.159 346.986,220.276 339.173,220.117 C335.858,220.244 333.932,217.188 333.516,214.258 C331.27,204.284 325.83,194.405 316.443,189.594 C303.194177,182.959935 288.002209,182.731743 273.426702,182.855418 L271.894825,182.869474 C271.130136,182.876891 270.367403,182.884694 269.607,182.892 C258.134,183.501 245.798,184.495 236.08,191.241 C228.618,196.351 226.351,206.667 229.015,214.975 C231.526,220.941 238.411,222.865 244.046,224.64 C257.347639,228.119098 270.974796,230.030406 284.618042,231.843621 L289.52977,232.494681 C307.53807,234.884986 325.509705,237.411672 342.733,243.455 C355.914,248.009 368.808,256.863 373.32,270.663 C379.221,289.16 376.634,311.268 363.474,326.117 C352.802,338.337 337.259,344.987 321.757,348.599 C301.134,353.198 279.733,353.314 258.788,351.273 C239.095,349.028 218.601,343.854 203.398,330.435 C190.398,319.147 184.048,301.559 184.678,284.583 C184.829,281.717 187.683,279.718 190.429,279.953 C198.298,279.89 206.167,279.868 214.036,279.964 C217.179,279.739 219.509,282.455 219.67,285.417 C221.122,294.921 224.693,304.895 232.98,310.529 C245.419,318.553333 260.323123,319.909432 274.94837,320.251385 L276.34032,320.281067 L276.34032,320.281067 L277.730057,320.305702 C280.969784,320.358139 284.187136,320.378222 287.352,320.428 C289.547947,320.330592 291.782818,320.24303 294.036878,320.134102 L295.26815,320.07238 C308.213998,319.398112 321.671632,317.836855 331.934,309.525 C338.466,303.805 340.402,294.237 338.636,286.004 C336.724,279.055 329.453,275.816 323.21,273.698 C309.408154,269.331723 295.098239,267.528801 280.742755,265.974893 L277.666051,265.64488 C259.716509,263.732201 241.747385,261.950308 224.662,255.779 C211.78,251.226 199.324,242.619 194.374,229.385 C187.468,210.655 190.633,187.488 205.172,173.14 C219.348,158.868 239.812,153.372 259.268,151.405 L259.267999,151.406993 L260.109236,151.353649 C286.799168,149.690071 315.283448,150.518208 339.266,163.648 Z"></path></svg> 